# xmcd
#
# Track frame offsets:
#	150
#	29397
#	59581
#	69789
#	86064
#	118126
#	146440
#	160791
#	183793
#	204472
#	244991
#	264166
#	283342
#	314931
#
# Disc length: 4475 seconds
#
# Revision: 0
# Processed by: cddbd v1.5.2PL0 Copyright (c) Steve Scherf et al.
# Submitted via: audiograbber 1.83.01
#
DISCID=d111790e
DTITLE=Life of Agony - 20 Years Strong - River Runs Red
DYEAR=2010
DGENRE=Metal
TTITLE0=This Time
TTITLE1=Underground
TTITLE2=River Runs Red
TTITLE3=Through And Through
TTITLE4=Words and Music
TTITLE5=Bad Seed
TTITLE6=My Eyes
TTITLE7=Respect
TTITLE8=Method Of Groove
TTITLE9=The Stain Remains
TTITLE10=Other Side Of The River
TTITLE11=Love To Let You Down
TTITLE12=Weeds
TTITLE13=Lost At 22
EXTD=
EXTT0=
EXTT1=
EXTT2=
EXTT3=
EXTT4=
EXTT5=
EXTT6=
EXTT7=
EXTT8=
EXTT9=
EXTT10=
EXTT11=
EXTT12=
EXTT13=
PLAYORDER=
